{
    "asset": {
        "version": "2.0",
        "generator": "Open Asset Import Library (assimp v5.0.5eb040c7)"
    },
    "accessors": [
        {
            "bufferView": 0,
            "byteOffset": 0,
            "componentType": 5126,
            "count": 42,
            "type": "VEC3",
            "max": [
                1.0,
                1.0,
                1.0
            ],
            "min": [
                -1.0,
                -1.0,
                -1.0
            ]
        },
        {
            "bufferView": 1,
            "byteOffset": 0,
            "componentType": 5126,
            "count": 42,
            "type": "VEC3",
            "max": [
                1.0,
                1.0,
                1.0
            ],
            "min": [
                -1.0,
                -1.0,
                -1.0
            ]
        },
        {
            "bufferView": 2,
            "byteOffset": 0,
            "componentType": 5125,
            "count": 96,
            "type": "SCALAR",
            "max": [
                41
            ],
            "min": [
                0
            ]
        },
        {
            "bufferView": 3,
            "byteOffset": 0,
            "componentType": 5126,
            "count": 144,
            "type": "VEC3",
            "max": [
                2.000000238418579,
                2.999999523162842,
                4.666666030883789
            ],
            "min": [
                -1.9999998807907105,
                -3.000000476837158,
                -3.999999761581421
            ]
        },
        {
            "bufferView": 4,
            "byteOffset": 0,
            "componentType": 5126,
            "count": 144,
            "type": "VEC3",
            "max": [
                1.0,
                1.0,
                1.0
            ],
            "min": [
                -1.0,
                -1.0,
                -1.0
            ]
        },
        {
            "bufferView": 5,
            "byteOffset": 0,
            "componentType": 5125,
            "count": 216,
            "type": "SCALAR",
            "max": [
                143
            ],
            "min": [
                0
            ]
        }
    ],
    "buffers": [
        {
            "byteLength": 5712,
            "uri": "result.bin"
        }
    ],
    "bufferViews": [
        {
            "buffer": 0,
            "byteOffset": 0,
            "byteLength": 504,
            "target": 34962
        },
        {
            "buffer": 0,
            "byteOffset": 504,
            "byteLength": 504,
            "target": 34962
        },
        {
            "buffer": 0,
            "byteOffset": 1008,
            "byteLength": 384,
            "target": 34963
        },
        {
            "buffer": 0,
            "byteOffset": 1392,
            "byteLength": 1728,
            "target": 34962
        },
        {
            "buffer": 0,
            "byteOffset": 3120,
            "byteLength": 1728,
            "target": 34962
        },
        {
            "buffer": 0,
            "byteOffset": 4848,
            "byteLength": 864,
            "target": 34963
        }
    ],
    "images": [
        {
            "uri": "D:\\#Minecraft\\.minecraft\\resourcepacks\\Nice\\assets\\minecraft\\textures\\blocks\\cobblestone.png"
        },
        {
            "uri": "D:\\#Minecraft\\.minecraft\\resourcepacks\\Nice\\assets\\minecraft\\textures\\entity\\creeper\\creeper.png"
        }
    ],
    "materials": [
        {
            "name": "brick",
            "pbrMetallicRoughness": {
                "baseColorTexture": {
                    "index": 0
                },
                "baseColorFactor": [
                    0.800000011920929,
                    0.800000011920929,
                    0.800000011920929,
                    1.0
                ],
                "metallicFactor": 0.0,
                "roughnessFactor": 0.873508870601654
            }
        },
        {
            "name": "Material",
            "pbrMetallicRoughness": {
                "baseColorTexture": {
                    "index": 1
                },
                "baseColorFactor": [
                    0.008671602234244347,
                    0.8000000715255737,
                    0.040108609944581988,
                    1.0
                ],
                "metallicFactor": 0.0,
                "roughnessFactor": 0.8905115723609924
            }
        }
    ],
    "meshes": [
        {
            "name": "Cube",
            "primitives": [
                {
                    "mode": 4,
                    "material": 0,
                    "indices": 2,
                    "attributes": {
                        "POSITION": 0,
                        "NORMAL": 1
                    }
                }
            ]
        },
        {
            "name": "Cube.002",
            "primitives": [
                {
                    "mode": 4,
                    "material": 1,
                    "indices": 5,
                    "attributes": {
                        "POSITION": 3,
                        "NORMAL": 4
                    }
                }
            ]
        }
    ],
    "nodes": [
        {
            "name": "RootNode",
            "children": [
                1,
                2,
                3,
                4
            ]
        },
        {
            "name": "Light",
            "matrix": [
                -66.12015533447266,
                39.87468338012695,
                -63.54632568359375,
                0.0,
                -29.40546226501465,
                64.15174865722656,
                70.85105895996094,
                0.0,
                69.01771545410156,
                65.53291320800781,
                -30.691904067993165,
                0.0,
                -291.77764892578127,
                589.2947387695313,
                397.3433532714844,
                1.0
            ]
        },
        {
            "name": "Camera",
            "matrix": [
                -65.15583038330078,
                -44.527137756347659,
                -61.417030334472659,
                0.0,
                -32.401336669921878,
                89.5395736694336,
                -30.542089462280275,
                0.0,
                68.59205627441406,
                -0.000011920928045583424,
                -72.76763916015625,
                0.0,
                735.88916015625,
                495.8309326171875,
                692.5791015625,
                1.0
            ]
        },
        {
            "name": "Cube",
            "matrix": [
                160.0,
                0.0,
                0.0,
                0.0,
                0.0,
                -0.000026067309590871447,
                -160.0,
                0.0,
                0.0,
                80.0,
                -0.000013033654795435723,
                0.0,
                0.0,
                -180.00003051757813,
                0.0,
                1.0
            ],
            "mesh": 0
        },
        {
            "name": "Creeper",
            "matrix": [
                16.540735244750978,
                0.0,
                0.0,
                0.0,
                0.0,
                -0.000002694828026506002,
                -16.540735244750978,
                0.0,
                0.0,
                24.811107635498048,
                -0.000004042242835566867,
                0.0,
                0.0,
                0.0,
                0.0,
                1.0
            ],
            "mesh": 1
        }
    ],
    "samplers": [
        {},
        {}
    ],
    "scenes": [
        {
            "nodes": [
                0
            ]
        }
    ],
    "textures": [
        {
            "source": 0,
            "sampler": 0
        },
        {
            "source": 1,
            "sampler": 1
        }
    ],
    "scene": 0
}